<svg width="157" height="57" viewBox="0 0 157 57" fill="none" xmlns="http://www.w3.org/2000/svg">
<path d="M9.47971 0.639223H11.8733L21.0065 23H17.9831L15.3376 16.4492H5.95238L3.33837 23H0.314941L9.47971 0.639223ZM14.7077 14.2447L10.6765 3.9146L6.51927 14.2447H14.7077ZM29.3448 5.86724V23H26.5104V0.639223H28.9039L42.5723 18.1184V0.670716H45.4068V23H42.8243L29.3448 5.86724ZM69.3905 3.15875H61.6745V23H58.84V3.15875H51.1239V0.639223H69.3905V3.15875ZM83.5242 23.1575C81.9495 23.1575 80.5218 22.8425 79.241 22.2126C77.9602 21.5828 76.8475 20.7324 75.9026 19.6616C74.9788 18.5698 74.2649 17.3521 73.761 16.0083C73.2571 14.6436 73.0052 13.2473 73.0052 11.8196C73.0052 10.3289 73.2676 8.91166 73.7925 7.56791C74.3384 6.20317 75.0838 4.9959 76.0286 3.9461C76.9944 2.8753 78.1177 2.03546 79.3985 1.42657C80.6792 0.796693 82.0755 0.481752 83.5872 0.481752C85.1619 0.481752 86.5896 0.807191 87.8704 1.45807C89.1511 2.10894 90.2534 2.98028 91.1772 4.07208C92.1011 5.16387 92.8149 6.38164 93.3188 7.72538C93.8227 9.06913 94.0747 10.4444 94.0747 11.8511C94.0747 13.3418 93.8122 14.7696 93.2873 16.1343C92.7624 17.478 92.0171 18.6853 91.0513 19.7561C90.1064 20.8059 88.9937 21.6353 87.7129 22.2441C86.4321 22.853 85.0359 23.1575 83.5242 23.1575ZM75.8711 11.8196C75.8711 12.9534 76.0496 14.0557 76.4065 15.1265C76.7845 16.1763 77.3094 17.1106 77.9812 17.9295C78.6531 18.7483 79.4615 19.3992 80.4063 19.8821C81.3511 20.365 82.4009 20.6065 83.5557 20.6065C84.7525 20.6065 85.8233 20.3545 86.7681 19.8506C87.7129 19.3467 88.5107 18.6748 89.1616 17.835C89.8335 16.9951 90.3374 16.0503 90.6733 15.0005C91.0303 13.9507 91.2087 12.8904 91.2087 11.8196C91.2087 10.6858 91.0198 9.59403 90.6418 8.54423C90.2849 7.49443 89.76 6.5601 89.0671 5.74126C88.3953 4.90142 87.5869 4.25054 86.6421 3.78863C85.7183 3.30572 84.6895 3.06427 83.5557 3.06427C82.3589 3.06427 81.2881 3.31622 80.3433 3.82012C79.3985 4.30303 78.5901 4.96441 77.9182 5.80425C77.2674 6.64409 76.7635 7.58891 76.4065 8.63871C76.0496 9.66752 75.8711 10.7278 75.8711 11.8196ZM103.367 5.86724V23H100.532V0.639223H102.926L116.594 18.1184V0.670716H119.429V23H116.846L103.367 5.86724ZM127.288 23V0.639223H130.122V23H127.288ZM144.791 0.639223H147.184L156.318 23H153.294L150.649 16.4492H141.264L138.65 23H135.626L144.791 0.639223ZM150.019 14.2447L145.988 3.9146L141.831 14.2447H150.019ZM1.10229 52.6616C1.50122 52.9346 2.04711 53.197 2.73998 53.449C3.45385 53.6799 4.29369 53.7954 5.25951 53.7954C6.24632 53.7954 7.05467 53.6379 7.68455 53.323C8.31443 52.9871 8.79734 52.4937 9.13328 51.8428C9.46921 51.1709 9.70017 50.3206 9.82614 49.2918C9.95212 48.263 10.0151 47.0452 10.0151 45.6385V33.6392H12.8496V45.0086C12.8496 46.6673 12.7656 48.1895 12.5976 49.5752C12.4297 50.961 12.0937 52.1682 11.5898 53.197C11.0859 54.2048 10.33 54.9817 9.32224 55.5276C8.33543 56.0735 7.01268 56.3464 5.35399 56.3464C4.30419 56.3464 3.38036 56.231 2.58251 56C1.78466 55.769 1.0498 55.4226 0.377929 54.9607L1.10229 52.6616ZM26.7621 33.6392H29.1556L38.2889 56H35.2655L32.62 49.4492H23.2347L20.6207 56H17.5973L26.7621 33.6392ZM31.9901 47.2447L27.9588 36.9146L23.8016 47.2447H31.9901ZM42.608 33.6392L50.0091 52.4412L57.3787 33.6392H60.3707L51.3004 56H48.7179L39.6161 33.6392H42.608ZM65.9038 56V33.6392H68.7382V56H65.9038ZM91.7845 53.4805V56H76.6044V33.6392H91.501V36.1587H79.4388V43.4024H89.9263V45.7644H79.4388V53.4805H91.7845ZM98.1926 56V33.6392H107.767C108.754 33.6392 109.656 33.8492 110.475 34.2691C111.294 34.668 112.008 35.2139 112.617 35.9068C113.226 36.5787 113.698 37.345 114.034 38.2059C114.37 39.0457 114.538 39.9065 114.538 40.7884C114.538 41.8172 114.339 42.7935 113.94 43.7173C113.562 44.6411 113.016 45.4285 112.302 46.0794C111.609 46.7303 110.79 47.1817 109.845 47.4336L115.262 56H112.05L106.948 47.969H101.027V56H98.1926ZM101.027 45.4495H107.798C108.575 45.4495 109.247 45.2395 109.814 44.8196C110.402 44.3787 110.853 43.8013 111.168 43.0874C111.504 42.3736 111.672 41.6072 111.672 40.7884C111.672 39.9485 111.483 39.1822 111.105 38.4893C110.727 37.7754 110.234 37.2085 109.625 36.7886C109.016 36.3687 108.344 36.1587 107.609 36.1587H101.027V45.4495ZM128.214 33.6392H130.607L139.74 56H136.717L134.071 49.4492H124.686L122.072 56H119.049L128.214 33.6392ZM133.442 47.2447L129.41 36.9146L125.253 47.2447H133.442Z" fill="#4F4A48"/>
</svg>
