<svg width="312" height="24" viewBox="0 0 312 24" fill="none" xmlns="http://www.w3.org/2000/svg">
<path d="M9.60518 0.343271H12.0304L21.2846 23H18.2211L15.5406 16.3625H6.03116L3.38255 23H0.319109L9.60518 0.343271ZM14.9024 14.1288L10.8178 3.662L6.60555 14.1288H14.9024ZM29.7332 5.64048V23H26.8612V0.343271H29.2865L43.1358 18.0538V0.375181H46.0078V23H43.3911L29.7332 5.64048ZM70.3089 2.89614H62.4907V23H59.6188V2.89614H51.8006V0.343271H70.3089V2.89614ZM84.6297 23.1596C83.0341 23.1596 81.5875 22.8404 80.2898 22.2022C78.9921 21.564 77.8646 20.7024 76.9072 19.6174C75.9712 18.5112 75.2479 17.2773 74.7373 15.9158C74.2267 14.533 73.9714 13.1183 73.9714 11.6716C73.9714 10.1612 74.2373 8.7252 74.7692 7.36367C75.3223 5.98086 76.0775 4.75761 77.0349 3.69391C78.0135 2.60894 79.1516 1.75799 80.4493 1.14104C81.747 0.502825 83.1618 0.183716 84.6935 0.183716C86.289 0.183716 87.7357 0.513462 89.0334 1.17295C90.3311 1.83245 91.448 2.71531 92.384 3.82156C93.3201 4.9278 94.0434 6.16169 94.5539 7.52322C95.0645 8.88475 95.3198 10.2782 95.3198 11.7035C95.3198 13.214 95.0539 14.6606 94.522 16.0434C93.9902 17.405 93.235 18.6282 92.2564 19.7132C91.299 20.7769 90.1715 21.6172 88.8738 22.2341C87.5761 22.8511 86.1614 23.1596 84.6297 23.1596ZM76.8753 11.6716C76.8753 12.8204 77.0561 13.9373 77.4178 15.0223C77.8007 16.086 78.3326 17.0327 79.0133 17.8623C79.6941 18.692 80.5132 19.3515 81.4705 19.8408C82.4278 20.3301 83.4915 20.5748 84.6616 20.5748C85.8742 20.5748 86.9592 20.3195 87.9165 19.8089C88.8738 19.2983 89.6822 18.6176 90.3417 17.7666C91.0225 16.9157 91.533 15.9583 91.8734 14.8946C92.2351 13.8309 92.4159 12.7566 92.4159 11.6716C92.4159 10.5228 92.2245 9.4166 91.8415 8.3529C91.4799 7.28921 90.948 6.34252 90.246 5.51283C89.5652 4.66188 88.7462 4.00239 87.7888 3.53436C86.8528 3.04506 85.8104 2.80041 84.6616 2.80041C83.449 2.80041 82.364 3.0557 81.4067 3.56627C80.4493 4.05557 79.6303 4.7257 78.9495 5.57666C78.29 6.42761 77.7795 7.38494 77.4178 8.44864C77.0561 9.49106 76.8753 10.5654 76.8753 11.6716ZM104.735 5.64048V23H101.863V0.343271H104.288L118.138 18.0538V0.375181H121.01V23H118.393L104.735 5.64048ZM128.972 23V0.343271H131.844V23H128.972ZM146.707 0.343271H149.133L158.387 23H155.323L152.643 16.3625H143.133L140.485 23H137.421L146.707 0.343271ZM152.005 14.1288L147.92 3.662L143.708 14.1288H152.005ZM171.122 19.6174C171.526 19.894 172.079 20.1599 172.781 20.4152C173.505 20.6492 174.356 20.7662 175.334 20.7662C176.334 20.7662 177.153 20.6067 177.791 20.2876C178.43 19.9472 178.919 19.4473 179.259 18.7878C179.6 18.107 179.834 17.2454 179.961 16.203C180.089 15.1606 180.153 13.9267 180.153 12.5013V0.343271H183.025V11.8631C183.025 13.5437 182.94 15.0861 182.77 16.4902C182.599 17.8943 182.259 19.1175 181.748 20.1599C181.238 21.1811 180.472 21.9682 179.451 22.5213C178.451 23.0745 177.111 23.351 175.43 23.351C174.366 23.351 173.43 23.234 172.622 23C171.814 22.766 171.069 22.415 170.388 21.9469L171.122 19.6174ZM197.122 0.343271H199.547L208.801 23H205.737L203.057 16.3625H193.547L190.899 23H187.835L197.122 0.343271ZM202.419 14.1288L198.334 3.662L194.122 14.1288H202.419ZM213.177 0.343271L220.676 19.3941L228.143 0.343271H231.175L221.985 23H219.368L210.146 0.343271H213.177ZM236.781 23V0.343271H239.653V23H236.781ZM263.005 20.4471V23H247.623V0.343271H262.717V2.89614H250.495V10.2356H261.122V12.629H250.495V20.4471H263.005ZM269.497 23V0.343271H279.198C280.198 0.343271 281.113 0.55601 281.943 0.981488C282.772 1.38569 283.496 1.93882 284.113 2.64086C284.73 3.32162 285.208 4.09812 285.549 4.97035C285.889 5.82131 286.059 6.69354 286.059 7.58704C286.059 8.62946 285.857 9.6187 285.453 10.5548C285.07 11.4908 284.517 12.2886 283.793 12.9481C283.091 13.6076 282.262 14.065 281.304 14.3202L286.793 23H283.538L278.369 14.8627H272.369V23H269.497ZM272.369 12.3099H279.23C280.017 12.3099 280.698 12.0971 281.273 11.6716C281.868 11.2249 282.326 10.6398 282.645 9.91654C282.985 9.19322 283.155 8.41672 283.155 7.58704C283.155 6.73609 282.964 5.95959 282.581 5.25755C282.198 4.53423 281.698 3.95984 281.081 3.53436C280.464 3.10888 279.783 2.89614 279.039 2.89614H272.369V12.3099ZM299.916 0.343271H302.341L311.595 23H308.532L305.851 16.3625H296.342L293.693 23H290.63L299.916 0.343271ZM305.213 14.1288L301.128 3.662L296.916 14.1288H305.213Z" fill="#4F4A48"/>
</svg>
