<svg width="120" height="45" viewBox="0 0 120 45" fill="none" xmlns="http://www.w3.org/2000/svg">
<path d="M7.74564 0.921629H9.5751L16.556 18.0127H14.2451L12.223 13.0057H5.04959L3.05162 18.0127H0.740723L7.74564 0.921629ZM11.7416 11.3207L8.66037 3.42511L5.48288 11.3207H11.7416Z" fill="white"/>
<path d="M22.9292 4.91756V18.0127H20.7627V0.921629H22.5922L33.0394 14.2815V0.9457H35.2058V18.0127H33.2319L22.9292 4.91756Z" fill="white"/>
<path d="M53.5373 2.84738H47.6397V18.0127H45.4732V2.84738H39.5756V0.921629H53.5373V2.84738Z" fill="white"/>
<path d="M64.3401 18.133C63.1366 18.133 62.0453 17.8923 61.0664 17.4109C60.0874 16.9294 59.2369 16.2795 58.5147 15.461C57.8086 14.6266 57.263 13.6958 56.8779 12.6687C56.4927 11.6256 56.3001 10.5584 56.3001 9.46715C56.3001 8.32775 56.5007 7.24451 56.9019 6.21744C57.3192 5.17433 57.8889 4.25157 58.611 3.44918C59.3492 2.63073 60.2078 1.98882 61.1867 1.52343C62.1657 1.04199 63.2328 0.80127 64.3883 0.80127C65.5919 0.80127 66.6831 1.05001 67.6621 1.5475C68.641 2.04498 69.4835 2.71097 70.1896 3.54546C70.8957 4.37996 71.4413 5.31074 71.8265 6.3378C72.2116 7.36487 72.4042 8.41601 72.4042 9.49122C72.4042 10.6306 72.2036 11.7219 71.8024 12.765C71.4012 13.7921 70.8315 14.7148 70.0933 15.5333C69.3712 16.3357 68.5206 16.9696 67.5417 17.4349C66.5628 17.9003 65.4956 18.133 64.3401 18.133ZM58.4907 9.46715C58.4907 10.3337 58.6271 11.1763 58.8999 11.9947C59.1888 12.7971 59.59 13.5112 60.1035 14.1371C60.617 14.763 61.2349 15.2604 61.957 15.6296C62.6792 15.9987 63.4816 16.1832 64.3642 16.1832C65.2789 16.1832 66.0974 15.9906 66.8195 15.6055C67.5417 15.2203 68.1515 14.7068 68.649 14.0649C69.1625 13.423 69.5477 12.7008 69.8045 11.8984C70.0773 11.096 70.2137 10.2856 70.2137 9.46715C70.2137 8.60056 70.0693 7.76607 69.7804 6.96367C69.5076 6.16128 69.1064 5.44714 68.5768 4.82127C68.0633 4.17936 67.4454 3.68187 66.7233 3.32882C66.0172 2.95972 65.2308 2.77516 64.3642 2.77516C63.4495 2.77516 62.631 2.96774 61.9089 3.35289C61.1867 3.72199 60.5689 4.2275 60.0554 4.86942C59.5579 5.51133 59.1727 6.23349 58.8999 7.03589C58.6271 7.82224 58.4907 8.63266 58.4907 9.46715Z" fill="white"/>
<path d="M79.5066 4.91756V18.0127H77.3401V0.921629H79.1696L89.6168 14.2815V0.9457H91.7832V18.0127H89.8093L79.5066 4.91756Z" fill="white"/>
<path d="M97.7899 18.0127V0.921629H99.9564V18.0127H97.7899Z" fill="white"/>
<path d="M111.168 0.921629H112.998L119.979 18.0127H117.668L115.646 13.0057H108.472L106.474 18.0127H104.163L111.168 0.921629ZM115.164 11.3207L112.083 3.42511L108.905 11.3207H115.164Z" fill="white"/>
<path d="M1.34252 41.461C1.64743 41.6697 2.06468 41.8703 2.59426 42.0628C3.13989 42.2394 3.7818 42.3276 4.52001 42.3276C5.27426 42.3276 5.89211 42.2073 6.37354 41.9666C6.85498 41.7098 7.22408 41.3327 7.48085 40.8352C7.73762 40.3216 7.91414 39.6717 8.01043 38.8854C8.10672 38.099 8.15486 37.1682 8.15486 36.093V26.9216H10.3213V35.6116C10.3213 36.8794 10.2571 38.0428 10.1288 39.102C10.0004 40.1612 9.74361 41.0839 9.35846 41.8703C8.97331 42.6406 8.39558 43.2343 7.62528 43.6516C6.87103 44.0688 5.86001 44.2775 4.59222 44.2775C3.78983 44.2775 3.08372 44.1892 2.4739 44.0127C1.86408 43.8361 1.3024 43.5714 0.788866 43.2183L1.34252 41.461Z" fill="white"/>
<path d="M20.9551 26.9216H22.7845L29.7654 44.0127H27.4545L25.4325 39.0057H18.259L16.2611 44.0127H13.9502L20.9551 26.9216ZM24.951 37.3207L21.8698 29.4251L18.6923 37.3207H24.951Z" fill="white"/>
<path d="M33.0666 26.9216L38.7235 41.2925L44.3563 26.9216H46.6432L39.7105 44.0127H37.7366L30.7798 26.9216H33.0666Z" fill="white"/>
<path d="M50.8723 44.0127V26.9216H53.0388V44.0127H50.8723Z" fill="white"/>
<path d="M70.6537 42.0869V44.0127H59.0511V26.9216H70.4371V28.8474H61.2176V34.3839H69.2335V36.1893H61.2176V42.0869H70.6537Z" fill="white"/>
<path d="M75.5516 44.0127V26.9216H82.8695C83.6237 26.9216 84.3138 27.0821 84.9397 27.4031C85.5655 27.708 86.1112 28.1252 86.5765 28.6548C87.0419 29.1683 87.403 29.7541 87.6598 30.4121C87.9165 31.054 88.0449 31.7119 88.0449 32.3859C88.0449 33.1723 87.8925 33.9185 87.5876 34.6246C87.2987 35.3307 86.8815 35.9325 86.3358 36.43C85.8062 36.9275 85.1804 37.2725 84.4582 37.4651L88.5986 44.0127H86.1432L82.2436 37.8743H77.7181V44.0127H75.5516ZM77.7181 35.9486H82.8935C83.4873 35.9486 84.0009 35.7881 84.4342 35.4671C84.8835 35.1301 85.2285 34.6888 85.4692 34.1432C85.726 33.5976 85.8544 33.0118 85.8544 32.3859C85.8544 31.744 85.71 31.1583 85.4211 30.6287C85.1322 30.0831 84.7551 29.6498 84.2897 29.3288C83.8243 29.0079 83.3108 28.8474 82.7491 28.8474H77.7181V35.9486Z" fill="white"/>
<path d="M98.4976 26.9216H100.327L107.308 44.0127H104.997L102.975 39.0057H95.8015L93.8036 44.0127H91.4927L98.4976 26.9216ZM102.494 37.3207L99.4123 29.4251L96.2348 37.3207H102.494Z" fill="white"/>
</svg>
